<svg width="64" height="85" viewBox="0 0 64 85" fill="none" xmlns="http://www.w3.org/2000/svg">
<path d="M32 42.1006C34.2 42.1006 36.0833 41.2761 37.65 39.6272C39.2167 37.9783 40 35.996 40 33.6805C40 31.365 39.2167 29.3827 37.65 27.7338C36.0833 26.0848 34.2 25.2604 32 25.2604C29.8 25.2604 27.9167 26.0848 26.35 27.7338C24.7833 29.3827 24 31.365 24 33.6805C24 35.996 24.7833 37.9783 26.35 39.6272C27.9167 41.2761 29.8 42.1006 32 42.1006ZM32 73.0446C40.1333 65.1858 46.1667 58.0462 50.1 51.6259C54.0333 45.2055 56 39.5044 56 34.5225C56 26.8742 53.6833 20.6118 49.05 15.7351C44.4167 10.8584 38.7333 8.42012 32 8.42012C25.2667 8.42012 19.5833 10.8584 14.95 15.7351C10.3167 20.6118 8 26.8742 8 34.5225C8 39.5044 9.96667 45.2055 13.9 51.6259C17.8333 58.0462 23.8667 65.1858 32 73.0446ZM32 84.2012C21.2667 74.5883 13.25 65.6594 7.95 57.4147C2.65 49.17 0 41.5393 0 34.5225C0 23.9974 3.21667 15.6123 9.65 9.36739C16.0833 3.12246 23.5333 0 32 0C40.4667 0 47.9167 3.12246 54.35 9.36739C60.7833 15.6123 64 23.9974 64 34.5225C64 41.5393 61.35 49.17 56.05 57.4147C50.75 65.6594 42.7333 74.5883 32 84.2012Z" fill="#2A2A2A"/>
</svg>
