<svg width="48" height="48" viewBox="0 0 48 48" fill="none" xmlns="http://www.w3.org/2000/svg">
<mask id="mask0_16_178" style="mask-type:alpha" maskUnits="userSpaceOnUse" x="0" y="0" width="48" height="48">
<rect width="48" height="48" fill="#D9D9D9"/>
</mask>
<g mask="url(#mask0_16_178)">
<path d="M24 25.8556C22.35 25.8556 20.9375 25.2372 19.7625 24.0005C18.5875 22.7638 18 21.2771 18 19.5405C18 17.8038 18.5875 16.3171 19.7625 15.0804C20.9375 13.8437 22.35 13.2253 24 13.2253C25.65 13.2253 27.0625 13.8437 28.2375 15.0804C29.4125 16.3171 30 17.8038 30 19.5405C30 21.2771 29.4125 22.7638 28.2375 24.0005C27.0625 25.2372 25.65 25.8556 24 25.8556ZM10 41.0766V37.6113C10 36.7423 10.2404 35.9293 10.7212 35.1723C11.2019 34.4153 11.8487 33.8277 12.6616 33.4093C14.5487 32.4567 16.4372 31.7422 18.3269 31.2659C20.2167 30.7895 22.1077 30.5513 24 30.5513C25.8923 30.5513 27.7833 30.7895 29.6731 31.2659C31.5628 31.7422 33.4513 32.4567 35.3384 33.4093C36.1513 33.8277 36.7981 34.4153 37.2789 35.1723C37.7596 35.9293 38 36.7423 38 37.6113V41.0766H10ZM12 38.9715H36V37.6113C36 37.1444 35.857 36.7059 35.5711 36.2957C35.2852 35.8855 34.8897 35.5387 34.3846 35.2553C32.7385 34.416 31.0412 33.773 29.2928 33.3264C27.5444 32.8797 25.7802 32.6564 24 32.6564C22.2198 32.6564 20.4556 32.8797 18.7072 33.3264C16.9588 33.773 15.2615 34.416 13.6154 35.2553C13.1103 35.5387 12.7147 35.8855 12.4288 36.2957C12.143 36.7059 12 37.1444 12 37.6113V38.9715ZM24 23.7505C25.1 23.7505 26.0417 23.3383 26.825 22.5138C27.6083 21.6893 28 20.6982 28 19.5405C28 18.3827 27.6083 17.3916 26.825 16.5671C26.0417 15.7426 25.1 15.3304 24 15.3304C22.9 15.3304 21.9583 15.7426 21.175 16.5671C20.3917 17.3916 20 18.3827 20 19.5405C20 20.6982 20.3917 21.6893 21.175 22.5138C21.9583 23.3383 22.9 23.7505 24 23.7505Z" fill="white"/>
</g>
</svg>
