<svg width="72" height="76" viewBox="0 0 72 76" fill="none" xmlns="http://www.w3.org/2000/svg">
<path d="M67.8 75.7811C59.2 75.7811 50.8167 73.7638 42.65 69.7291C34.4833 65.6945 27.25 60.3618 20.95 53.7309C14.65 47.1001 9.58333 39.4869 5.75 30.8913C1.91667 22.2958 0 13.4722 0 4.42057C0 3.15755 0.4 2.10503 1.2 1.26302C2 0.421006 3 0 4.2 0H20.4C21.3333 0 22.1667 0.315755 22.9 0.947264C23.6333 1.57877 24.0667 2.3857 24.2 3.36805L26.8 18.1033C26.9333 19.0856 26.9167 19.9803 26.75 20.7872C26.5833 21.5941 26.2 22.3133 25.6 22.9448L15.9 33.2595C18.7 38.3116 22.2167 43.0479 26.45 47.4685C30.6833 51.889 35.3333 55.7132 40.4 58.9409L49.8 49.0472C50.4 48.4157 51.1833 47.9421 52.15 47.6263C53.1167 47.3106 54.0667 47.2229 55 47.3632L68.8 50.3102C69.7333 50.5207 70.5 50.9944 71.1 51.7311C71.7 52.4679 72 53.3275 72 54.3098V71.3606C72 72.6236 71.6 73.6761 70.8 74.5181C70 75.3601 69 75.7811 67.8 75.7811ZM12.1 25.2604L18.7 18.3138L17 8.42012H8.1C8.43333 11.297 8.9 14.1388 9.5 16.9455C10.1 19.7522 10.9667 22.5238 12.1 25.2604ZM47.9 62.9404C50.5 64.1333 53.15 65.0805 55.85 65.7822C58.55 66.4839 61.2667 66.94 64 67.1505V57.8884L54.6 55.8886L47.9 62.9404Z" fill="#2A2A2A"/>
</svg>
