<svg width="80" height="85" viewBox="0 0 80 85" fill="none" xmlns="http://www.w3.org/2000/svg">
<path d="M53.2 61.8879L58.8 55.9938L44 40.4166V21.0503H36V43.7846L53.2 61.8879ZM40 84.2012C34.4667 84.2012 29.2667 83.0961 24.4 80.8858C19.5333 78.6755 15.3 75.6759 11.7 71.8868C8.1 68.0977 5.25 63.6421 3.15 58.5199C1.05 53.3976 0 47.9245 0 42.1006C0 36.2767 1.05 30.8036 3.15 25.6814C5.25 20.5591 8.1 16.1035 11.7 12.3144C15.3 8.52537 19.5333 5.52571 24.4 3.31542C29.2667 1.10514 34.4667 0 40 0C45.5333 0 50.7333 1.10514 55.6 3.31542C60.4667 5.52571 64.7 8.52537 68.3 12.3144C71.9 16.1035 74.75 20.5591 76.85 25.6814C78.95 30.8036 80 36.2767 80 42.1006C80 47.9245 78.95 53.3976 76.85 58.5199C74.75 63.6421 71.9 68.0977 68.3 71.8868C64.7 75.6759 60.4667 78.6755 55.6 80.8858C50.7333 83.0961 45.5333 84.2012 40 84.2012ZM40 75.7811C48.8667 75.7811 56.4167 72.5008 62.65 65.9401C68.8833 59.3794 72 51.4329 72 42.1006C72 32.7683 68.8833 24.8218 62.65 18.2611C56.4167 11.7005 48.8667 8.42012 40 8.42012C31.1333 8.42012 23.5833 11.7005 17.35 18.2611C11.1167 24.8218 8 32.7683 8 42.1006C8 51.4329 11.1167 59.3794 17.35 65.9401C23.5833 72.5008 31.1333 75.7811 40 75.7811Z" fill="#2A2A2A"/>
</svg>
