<svg width="91" height="60" viewBox="0 0 91 60" fill="none" xmlns="http://www.w3.org/2000/svg">
<path d="M54.1931 2.5506C52.1526 5.9114 38.5394 15.3537 31.9878 19.6547L66.9462 16.804C66.8262 10.8026 58.3941 4.80114 54.1931 2.5506Z" fill="url(#paint0_linear_5_69)"/>
<path d="M12.033 0C8.91223 11.0426 14.0335 20.1048 16.9842 23.2556C9.54238 30.9374 10.5826 41.56 12.033 45.911C24.1559 44.5907 29.7872 32.3578 31.0875 26.4063L38.7394 31.8076C39.6996 37.0889 44.2407 40.4097 46.3912 41.4099C54.1931 46.3311 65.4458 43.0603 70.0969 40.8098C59.1743 41.65 56.0435 33.158 55.8435 28.8069C55.8435 19.9248 63.0452 16.9041 66.6461 16.504C54.7632 11.8228 37.9892 16.754 31.0875 19.8048C28.4469 5.88141 17.2842 0.800192 12.033 0Z" fill="url(#paint1_linear_5_69)"/>
<path d="M52.0925 48.0115C57.2538 50.8922 61.3448 42.8103 62.7451 38.4092L60.3445 35.8586L43.9906 43.2104L52.0925 48.0115Z" fill="url(#paint2_linear_5_69)"/>
<path fill-rule="evenodd" clip-rule="evenodd" d="M81.7569 29.1272C80.1863 24.4829 74.1378 17.9309 66.6461 16.504C63.6954 15.7538 54.7933 19.3546 54.7933 28.2068C54.7902 28.423 54.7848 28.6512 54.7791 28.8897C54.6912 32.5668 54.5456 38.6597 62.2951 40.2096L65.5959 40.8098L69.4968 41.1099C70.3815 40.6675 77.1024 37.1766 80.239 33.3529L80.1492 33.308L77.5986 32.7078L81.7569 29.1272Z" fill="url(#paint3_linear_5_69)"/>
<path d="M77.5986 32.7078L79.5491 33.1579L81.7546 29.122L77.5986 32.7078Z" fill="#E8163B"/>
<circle cx="72.0473" cy="26.7064" r="2.85068" fill="url(#paint4_linear_5_69)" fill-opacity="0.8"/>
<circle cx="72.1529" cy="26.812" r="1.68929" fill="black"/>
<path d="M1 56.5L7.29313 54.5201C10.3584 53.5558 13.6925 53.9863 16.4123 55.6976V55.6976C20.4776 58.2555 25.6303 57.6003 29.9884 55.5813C31.3625 54.9447 32.7646 54.5 34 54.5C35.6655 54.5 37.7441 55.3083 39.6743 56.3051C43.3618 58.2095 47.8327 58.5323 51.3454 56.322V56.322C54.5723 54.2916 58.6777 54.2916 61.9046 56.322L62.1875 56.5C65.5873 58.6392 69.9127 58.6392 73.3125 56.5L74.1618 55.9656C77.1518 54.0843 80.8171 53.611 84.1869 54.6711L90 56.5" stroke="#FFD700" stroke-width="3"/>
<defs>
<linearGradient id="paint0_linear_5_69" x1="49.467" y1="2.5506" x2="49.467" y2="19.6547" gradientUnits="userSpaceOnUse">
<stop stop-color="#F7DE30"/>
<stop offset="1" stop-color="#DA4D1F"/>
</linearGradient>
<linearGradient id="paint1_linear_5_69" x1="40.5485" y1="0" x2="40.5485" y2="45.911" gradientUnits="userSpaceOnUse">
<stop stop-color="#FAD32E"/>
<stop offset="1" stop-color="#E5312C"/>
</linearGradient>
<linearGradient id="paint2_linear_5_69" x1="53.3679" y1="35.8586" x2="53.3679" y2="48.6178" gradientUnits="userSpaceOnUse">
<stop stop-color="#D12322"/>
<stop offset="1" stop-color="#F9CB33"/>
</linearGradient>
<linearGradient id="paint3_linear_5_69" x1="61.2448" y1="37.359" x2="76.5485" y2="22.9555" gradientUnits="userSpaceOnUse">
<stop stop-color="#E95223"/>
<stop offset="1" stop-color="#FCE62C"/>
</linearGradient>
<linearGradient id="paint4_linear_5_69" x1="72.0473" y1="23.8557" x2="72.0473" y2="29.5571" gradientUnits="userSpaceOnUse">
<stop stop-color="#EDEEF2"/>
<stop offset="1" stop-color="#A39FA0"/>
</linearGradient>
</defs>
</svg>
