<svg width="25" height="25" viewBox="0 0 25 25" fill="none" xmlns="http://www.w3.org/2000/svg">
<mask id="mask0_79_25" style="mask-type:alpha" maskUnits="userSpaceOnUse" x="0" y="0" width="25" height="25">
<rect x="0.584473" y="0.677979" width="24" height="24" fill="#D9D9D9"/>
</mask>
<g mask="url(#mask0_79_25)">
<path d="M12.5892 15.8318C13.6054 15.8318 14.4677 15.4762 15.176 14.7648C15.8844 14.0535 16.2385 13.1897 16.2385 12.1735C16.2385 11.1572 15.8829 10.295 15.1715 9.58663C14.4602 8.8783 13.5964 8.52413 12.5802 8.52413C11.564 8.52413 10.7017 8.8798 9.99335 9.59115C9.28501 10.3025 8.93085 11.1663 8.93085 12.1825C8.93085 13.1987 9.28652 14.061 9.99787 14.7693C10.7092 15.4777 11.573 15.8318 12.5892 15.8318ZM12.5847 14.878C11.8347 14.878 11.1972 14.6155 10.6722 14.0905C10.1472 13.5655 9.8847 12.928 9.8847 12.178C9.8847 11.428 10.1472 10.7905 10.6722 10.2655C11.1972 9.74048 11.8347 9.47798 12.5847 9.47798C13.3347 9.47798 13.9722 9.74048 14.4972 10.2655C15.0222 10.7905 15.2847 11.428 15.2847 12.178C15.2847 12.928 15.0222 13.5655 14.4972 14.0905C13.9722 14.6155 13.3347 14.878 12.5847 14.878ZM12.5874 18.678C10.4215 18.678 8.44752 18.0886 6.66547 16.9097C4.8834 15.7309 3.54879 14.1536 2.66162 12.178C3.54879 10.2023 4.88249 8.62509 6.66272 7.44625C8.44294 6.2674 10.416 5.67798 12.5819 5.67798C14.7479 5.67798 16.7219 6.2674 18.5039 7.44625C20.286 8.62509 21.6206 10.2023 22.5078 12.178C21.6206 14.1536 20.2869 15.7309 18.5067 16.9097C16.7265 18.0886 14.7534 18.678 12.5874 18.678ZM12.5847 17.678C14.468 17.678 16.1972 17.1821 17.7722 16.1905C19.3472 15.1988 20.5514 13.8613 21.3847 12.178C20.5514 10.4946 19.3472 9.15715 17.7722 8.16548C16.1972 7.17381 14.468 6.67798 12.5847 6.67798C10.7014 6.67798 8.9722 7.17381 7.3972 8.16548C5.8222 9.15715 4.61803 10.4946 3.7847 12.178C4.61803 13.8613 5.8222 15.1988 7.3972 16.1905C8.9722 17.1821 10.7014 17.678 12.5847 17.678Z" fill="#1C1B1F"/>
</g>
</svg>
